<?xml version="1.0"?><svg version="1.2" baseProfile="tiny-ps" viewBox="0 0 300 300" xmlns="http://www.w3.org/2000/svg" xmlns:xlink="http://www.w3.org/1999/xlink"><title>fiftyminds</title><g><g fill="#6a6464" transform="matrix(.1 0 0 -.1 0 300)"><path d="m1585 2689-110-8-117-30-117-29-87-38c-331-142-578-368-739-676l-54-103-35-105c-19-58-43-143-53-190l-18-85v-380l18-88c38-189 110-364 215-522 53-80 162-217 151-190-2 6-27 58-56 115-63 127-95 221-123 359l-21 105-6 115-6 116 12 105 13 105 29 113 29 112 48 108 48 108 68 105 68 104 122 121 121 120 93 62c222 148 468 230 742 247l105 7 105-12c199-21 359-69 533-158l109-55 80-59c44-33 100-78 126-101 52-47 48-38-17 48-135 178-361 352-576 443-217 91-451 128-700 111zm-460-671c-3-7-4-416-3-908l3-895 43 3c23 1 68 12 99 24l57 21 54 53 53 54 27 57 27 58 3 247 3 247 262 3 262 3 57 28 56 28 36 39c46 51 75 109 83 165l6 45h-763v429l328 3 327 3 47 23 47 23 40 40c48 48 79 108 87 172l7 47H1129l-4-12z"/></g></g></svg>